<svg width="833" height="641" viewBox="0 0 833 641" fill="none" xmlns="http://www.w3.org/2000/svg">
<path fill-rule="evenodd" clip-rule="evenodd" d="M56.2195 408.729C119.223 545.814 257.746 641 418.5 641C633.395 641 808.562 470.902 816.704 258H774.669C766.554 447.699 610.196 599 418.5 599C275.045 599 151.38 514.268 94.8227 392.121L56.2195 408.729Z" fill="#392F31"/>
<path d="M141.9 240.99C142.12 245.39 142.23 250.01 142.23 254.85C142.23 259.47 142.12 263.76 141.9 267.72C141.68 273.66 141.35 279.16 140.91 284.22C140.47 289.06 139.59 293.24 138.27 296.76C136.95 300.06 134.86 302.59 132 304.35C129.36 305.89 125.62 306.33 120.78 305.67C115.72 305.01 112.09 302.59 109.89 298.41C107.69 294.23 106.15 289.5 105.27 284.22C104.61 278.72 104.39 273.22 104.61 267.72C104.83 262.22 104.83 257.93 104.61 254.85C104.39 250.01 104.17 244.51 103.95 238.35C103.95 231.97 103.29 226.03 101.97 220.53C100.87 214.81 98.89 209.97 96.03 206.01C93.17 202.05 88.88 199.96 83.16 199.74C75.9 199.3 70.29 199.85 66.33 201.39C62.59 202.93 59.84 205.24 58.08 208.32C56.32 211.18 55.22 214.7 54.78 218.88C54.56 223.06 54.12 227.57 53.46 232.41L53.13 245.28V269.37C53.13 273.33 53.02 277.51 52.8 281.91C52.8 286.09 52.14 289.94 50.82 293.46C49.5 296.98 47.41 299.95 44.55 302.37C41.91 304.79 37.95 306 32.67 306C26.07 306 21.12 303.91 17.82 299.73C14.74 295.33 13.2 289.94 13.2 283.56V93.81C13.2 92.49 13.2 91.28 13.2 90.18C13.42 88.86 13.64 87.54 13.86 86.22C14.3 84.9 14.63 83.69 14.85 82.59C15.07 81.27 15.4 80.06 15.84 78.96C16.5 76.76 17.6 75.11 19.14 74.01C20.24 72.91 21.34 72.03 22.44 71.37C23.54 70.71 24.75 70.27 26.07 70.05C27.17 69.83 28.38 69.72 29.7 69.72C31.02 69.5 32.34 69.39 33.66 69.39C36.96 69.39 40.15 70.38 43.23 72.36C44.55 73.24 45.76 74.23 46.86 75.33C47.96 76.21 48.84 77.53 49.5 79.29C51.26 83.47 52.14 87.43 52.14 91.17C52.36 92.27 52.47 93.92 52.47 96.12C52.69 98.1 52.8 100.19 52.8 102.39C52.8 104.59 52.8 106.79 52.8 108.99C53.02 110.97 53.13 112.51 53.13 113.61V115.26C53.35 122.3 53.46 129.45 53.46 136.71C53.46 143.97 53.46 151.34 53.46 158.82V164.43C62.7 161.35 72.38 159.92 82.5 160.14C92.62 160.14 101.64 162.12 109.56 166.08C117.7 170.26 123.86 174.99 128.04 180.27C132.44 185.55 135.63 191.38 137.61 197.76C139.59 204.14 140.69 210.96 140.91 218.22C141.35 225.48 141.68 233.07 141.9 240.99ZM207.142 167.07C213.742 163.77 220.672 161.46 227.932 160.14C235.192 158.6 242.342 158.27 249.382 159.15C256.642 159.81 263.572 161.68 270.172 164.76C276.772 167.62 282.932 171.8 288.652 177.3C294.372 183.02 298.772 189.29 301.852 196.11C304.932 202.93 307.132 210.52 308.452 218.88C309.332 224.6 310.762 229.88 312.742 234.72C314.722 239.56 316.812 244.4 319.012 249.24C321.432 254.08 323.632 258.92 325.612 263.76C327.812 268.6 329.572 273.66 330.892 278.94C331.992 284 331.552 288.95 329.572 293.79C327.812 298.41 324.072 301.27 318.352 302.37C315.052 303.03 311.862 302.81 308.782 301.71C305.922 300.39 303.282 298.63 300.862 296.43C298.442 294.01 296.242 291.48 294.262 288.84C292.502 285.98 290.852 283.34 289.312 280.92C284.252 287.52 278.752 292.69 272.812 296.43C266.872 299.95 259.722 302.26 251.362 303.36C244.322 304.24 237.612 304.46 231.232 304.02C224.852 303.58 218.032 302.37 210.772 300.39C201.312 297.97 193.502 293.79 187.342 287.85C181.402 281.69 176.782 274.65 173.482 266.73C170.402 258.59 168.752 249.9 168.532 240.66C168.312 231.42 169.412 222.29 171.832 213.27C174.912 201.39 179.532 191.71 185.692 184.23C191.852 176.75 199.002 171.03 207.142 167.07ZM215.392 205.68C212.312 208.76 209.892 212.39 208.132 216.57C206.372 220.75 205.272 225.15 204.832 229.77C204.612 234.39 205.052 239.01 206.152 243.63C207.252 248.25 209.012 252.32 211.432 255.84C213.632 258.92 217.372 261.56 222.652 263.76C227.932 265.74 233.432 266.95 239.152 267.39C245.752 267.83 251.472 266.07 256.312 262.11C261.372 258.15 265.112 253.2 267.532 247.26C270.172 241.1 271.382 234.61 271.162 227.79C270.942 220.75 269.072 214.37 265.552 208.65C262.912 204.47 259.392 201.39 254.992 199.41C250.812 197.43 246.302 196.44 241.462 196.44C236.622 196.22 231.782 196.99 226.942 198.75C222.322 200.29 218.472 202.6 215.392 205.68ZM450.746 157.5C457.126 160.14 462.956 163.99 468.236 169.05C473.516 173.89 478.026 179.5 481.766 185.88C485.726 192.26 488.696 199.19 490.676 206.67C492.876 213.93 493.976 221.3 493.976 228.78C494.196 240 491.556 250.56 486.056 260.46C480.776 270.36 472.086 277.95 459.986 283.23C450.746 286.97 441.176 289.83 431.276 291.81C421.596 293.57 411.476 294.78 400.916 295.44V355.83C400.916 357.15 400.696 358.36 400.256 359.46C400.036 360.56 399.926 361.66 399.926 362.76C399.486 364.96 398.936 366.94 398.276 368.7C397.836 370.46 397.176 372.33 396.296 374.31C395.416 375.63 394.536 376.84 393.656 377.94C392.776 379.04 391.786 380.14 390.686 381.24C385.406 383.88 379.906 384.43 374.186 382.89C370.666 382.67 367.806 381.57 365.606 379.59C363.626 377.61 362.196 375.52 361.316 373.32C360.436 371.12 359.666 368.59 359.006 365.73C358.786 364.63 358.566 363.53 358.346 362.43C358.346 361.55 358.346 360.56 358.346 359.46V175.65C358.346 174.33 358.346 173.01 358.346 171.69C358.566 170.15 358.786 168.61 359.006 167.07C359.226 164.43 359.886 161.79 360.986 159.15C362.966 153.65 367.036 149.91 373.196 147.93C379.356 145.95 386.286 145.07 393.986 145.29C399.266 145.51 404.656 146.06 410.156 146.94C415.876 147.82 421.266 148.92 426.326 150.24C431.606 151.34 436.336 152.55 440.516 153.87C444.696 155.19 448.106 156.4 450.746 157.5ZM451.406 228.78C452.286 222.62 451.516 217.45 449.096 213.27C446.896 208.87 443.706 205.35 439.526 202.71C435.346 199.85 430.506 197.65 425.006 196.11C419.726 194.57 414.446 193.47 409.166 192.81C408.506 192.59 407.406 192.48 405.866 192.48C404.546 192.48 403.006 192.48 401.246 192.48C401.246 199.52 401.246 206.34 401.246 212.94C401.466 219.32 401.466 226.25 401.246 233.73V255.84C406.306 255.62 411.586 255.07 417.086 254.19C422.806 253.31 428.086 251.88 432.926 249.9C437.766 247.92 441.836 245.28 445.136 241.98C448.656 238.68 450.746 234.28 451.406 228.78ZM613.168 157.5C619.548 160.14 625.378 163.99 630.658 169.05C635.938 173.89 640.448 179.5 644.188 185.88C648.148 192.26 651.118 199.19 653.098 206.67C655.298 213.93 656.398 221.3 656.398 228.78C656.618 240 653.978 250.56 648.478 260.46C643.198 270.36 634.508 277.95 622.408 283.23C613.168 286.97 603.598 289.83 593.698 291.81C584.018 293.57 573.898 294.78 563.338 295.44V355.83C563.338 357.15 563.118 358.36 562.678 359.46C562.458 360.56 562.348 361.66 562.348 362.76C561.908 364.96 561.358 366.94 560.698 368.7C560.258 370.46 559.598 372.33 558.718 374.31C557.838 375.63 556.958 376.84 556.078 377.94C555.198 379.04 554.208 380.14 553.108 381.24C547.828 383.88 542.328 384.43 536.608 382.89C533.088 382.67 530.228 381.57 528.028 379.59C526.048 377.61 524.618 375.52 523.738 373.32C522.858 371.12 522.088 368.59 521.428 365.73C521.208 364.63 520.988 363.53 520.768 362.43C520.768 361.55 520.768 360.56 520.768 359.46V175.65C520.768 174.33 520.768 173.01 520.768 171.69C520.988 170.15 521.208 168.61 521.428 167.07C521.648 164.43 522.308 161.79 523.408 159.15C525.388 153.65 529.458 149.91 535.618 147.93C541.778 145.95 548.708 145.07 556.408 145.29C561.688 145.51 567.078 146.06 572.578 146.94C578.298 147.82 583.688 148.92 588.748 150.24C594.028 151.34 598.758 152.55 602.938 153.87C607.118 155.19 610.528 156.4 613.168 157.5ZM613.828 228.78C614.708 222.62 613.938 217.45 611.518 213.27C609.318 208.87 606.128 205.35 601.948 202.71C597.768 199.85 592.928 197.65 587.428 196.11C582.148 194.57 576.868 193.47 571.588 192.81C570.928 192.59 569.828 192.48 568.288 192.48C566.968 192.48 565.428 192.48 563.668 192.48C563.668 199.52 563.668 206.34 563.668 212.94C563.888 219.32 563.888 226.25 563.668 233.73V255.84C568.728 255.62 574.008 255.07 579.508 254.19C585.228 253.31 590.508 251.88 595.348 249.9C600.188 247.92 604.258 245.28 607.558 241.98C611.078 238.68 613.168 234.28 613.828 228.78ZM818.82 227.46C818.38 234.72 817.94 242.09 817.5 249.57C817.06 256.83 815.85 263.87 813.87 270.69C812.11 277.51 809.25 283.67 805.29 289.17C801.55 294.67 796.16 299.07 789.12 302.37C782.96 305.45 776.36 307.54 769.32 308.64C762.28 309.96 755.24 310.51 748.2 310.29C741.16 310.07 734.34 308.97 727.74 306.99C721.14 305.23 715.2 302.7 709.92 299.4C704.64 296.1 700.35 291.81 697.05 286.53C693.75 281.25 691.11 275.53 689.13 269.37C687.37 263.21 686.16 256.83 685.5 250.23C684.84 243.63 684.4 237.47 684.18 231.75C683.3 216.57 683.3 201.61 684.18 186.87C684.18 184.01 684.18 180.82 684.18 177.3C684.18 173.56 684.4 169.93 684.84 166.41C685.5 162.89 686.49 159.7 687.81 156.84C689.13 153.76 691.33 151.45 694.41 149.91C701.01 146.39 707.06 146.17 712.56 149.25C718.28 152.33 721.69 158.71 722.79 168.39C723.45 173.45 723.67 179.06 723.45 185.22C723.45 191.38 723.67 196.99 724.11 202.05C724.33 209.53 724.55 217.67 724.77 226.47C724.99 235.05 726.2 242.75 728.4 249.57C730.82 256.39 734.67 261.56 739.95 265.08C745.45 268.38 753.59 268.49 764.37 265.41C769.43 263.87 772.73 260.02 774.27 253.86C776.03 247.7 776.91 238.57 776.91 226.47C776.91 221.19 776.8 215.36 776.58 208.98C776.36 202.6 776.25 196.33 776.25 190.17C776.25 183.79 776.36 177.96 776.58 172.68C777.02 167.18 777.68 163 778.56 160.14C779.66 156.18 781.97 153.21 785.49 151.23C789.01 149.25 792.75 148.26 796.71 148.26C800.67 148.04 804.41 148.81 807.93 150.57C811.45 152.33 813.87 155.19 815.19 159.15C816.51 162.67 817.39 167.18 817.83 172.68C818.49 177.96 818.93 183.79 819.15 190.17C819.37 196.33 819.37 202.71 819.15 209.31C819.15 215.69 819.04 221.74 818.82 227.46Z" fill="#392F31"/>
</svg>
